<svg id="svg" xmlns="http://www.w3.org/2000/svg" xmlns:xlink="http://www.w3.org/1999/xlink" width="400" height="178.66666666666669" viewBox="0, 0, 400,178.66666666666669"><g id="svgg"><path id="path0" d="M325.189 29.493 C 314.717 33.154,314.471 39.043,324.079 56.063 C 331.031 68.379,350.560 98.667,351.549 98.667 C 353.576 98.667,375.426 77.060,381.126 69.420 C 388.096 60.077,390.652 51.566,387.723 47.452 C 379.567 35.998,339.495 24.490,325.189 29.493 M231.735 71.210 C 225.254 74.713,224.865 82.168,230.946 86.301 C 235.715 89.543,242.906 85.907,243.581 79.912 C 244.303 73.513,237.168 68.272,231.735 71.210 M303.686 71.159 C 295.067 74.912,297.567 87.467,306.933 87.467 C 315.679 87.467,318.585 75.300,310.745 71.505 C 308.127 70.237,306.038 70.135,303.686 71.159 M262.933 95.702 C 233.932 101.811,232.822 128.903,261.285 135.948 C 267.203 137.413,267.227 137.601,262.157 142.671 C 249.488 155.340,233.234 153.631,225.447 138.813 C 223.112 134.370,221.424 133.369,218.397 134.633 C 214.001 136.470,214.847 141.711,220.824 149.677 C 231.728 164.209,253.958 164.168,268.970 149.588 L 270.994 147.623 274.297 150.784 C 282.106 158.259,286.852 159.312,311.467 159.028 C 341.038 158.686,362.409 122.270,344.008 103.577 C 333.869 93.277,317.293 95.660,313.411 107.977 C 312.887 109.639,311.883 115.407,311.180 120.795 C 309.662 132.421,309.161 134.666,307.102 139.070 C 300.981 152.162,287.223 152.895,278.319 140.603 C 276.351 137.886,276.375 137.067,278.424 137.067 C 284.201 137.067,295.700 132.141,299.836 127.894 C 316.198 111.097,291.622 89.658,262.933 95.702 M280.575 100.860 C 283.542 102.130,287.025 104.326,285.212 103.785 C 279.329 102.027,270.045 102.362,263.648 104.563 C 258.832 106.220,258.576 105.748,262.736 102.886 C 268.415 98.979,274.549 98.282,280.575 100.860 M137.733 103.310 L 136.533 103.541 136.533 125.037 L 136.533 146.533 138.200 146.867 C 144.846 148.196,147.199 147.185,147.205 143.000 C 147.207 141.057,147.364 138.182,147.552 136.612 L 147.895 133.757 149.083 136.612 C 149.736 138.182,151.010 141.087,151.913 143.067 L 153.555 146.667 159.711 146.667 C 163.394 146.667,165.867 146.456,165.867 146.142 C 165.867 145.853,163.942 141.924,161.590 137.411 C 156.712 128.053,156.720 129.390,161.498 121.702 C 165.468 115.317,165.559 115.721,160.062 115.344 C 154.542 114.966,153.914 115.381,150.512 121.655 L 147.857 126.552 147.465 115.055 C 147.086 103.935,147.036 103.548,145.936 103.253 C 144.676 102.915,139.602 102.950,137.733 103.310 M27.404 104.238 C 27.213 104.736,27.343 106.866,27.694 108.972 C 28.045 111.077,29.154 118.200,30.159 124.800 C 32.169 138.002,33.475 145.652,33.769 145.946 C 35.129 147.307,48.551 146.942,49.856 145.510 C 50.211 145.119,51.418 141.371,52.537 137.179 C 53.656 132.988,54.740 129.748,54.947 129.979 C 55.153 130.211,56.212 133.878,57.301 138.129 C 58.389 142.380,59.368 145.946,59.476 146.054 C 60.508 147.086,71.711 146.946,75.214 145.857 C 76.037 145.601,84.039 104.662,83.392 104.014 C 82.877 103.498,73.878 103.364,72.021 103.845 C 69.786 104.425,69.903 103.998,67.976 118.543 C 67.169 124.635,66.426 129.537,66.324 129.435 C 66.223 129.334,64.786 123.749,63.131 117.025 C 59.590 102.640,60.056 103.467,55.503 103.467 C 50.241 103.467,50.394 103.229,47.135 116.527 C 44.450 127.487,43.988 129.031,43.557 128.489 C 43.460 128.367,42.775 122.922,42.036 116.391 C 41.297 109.859,40.532 104.354,40.336 104.158 C 39.417 103.240,27.759 103.312,27.404 104.238 M120.074 104.177 C 119.621 104.724,119.492 110.503,119.594 125.662 L 119.733 146.400 125.333 146.400 L 130.933 146.400 130.933 125.067 L 130.933 103.733 125.814 103.582 C 121.930 103.467,120.545 103.610,120.074 104.177 M333.333 107.764 C 344.014 112.544,343.851 126.817,332.976 139.155 C 330.596 141.855,323.267 147.196,321.932 147.203 C 321.603 147.205,320.681 147.547,319.884 147.963 C 319.087 148.379,317.131 148.882,315.538 149.081 L 312.641 149.443 315.413 143.912 C 318.448 137.859,319.062 135.259,321.038 120.113 C 322.734 107.118,325.556 104.284,333.333 107.764 M94.250 115.683 C 90.908 116.381,89.600 117.325,89.600 119.041 C 89.600 120.435,90.877 124.267,91.342 124.267 C 91.449 124.267,92.919 124.011,94.607 123.699 C 98.645 122.953,100.800 123.416,100.800 125.032 C 100.800 126.161,100.518 126.267,96.784 126.550 C 89.906 127.070,86.386 129.634,85.573 134.714 C 84.126 143.763,93.652 150.126,102.241 145.846 L 104.958 144.492 106.954 145.846 C 111.743 149.096,115.733 146.834,115.733 140.870 C 115.733 137.296,115.362 136.533,113.623 136.533 L 112.160 136.533 111.800 129.467 C 111.165 116.992,106.297 113.169,94.250 115.683 M169.467 115.565 C 166.923 115.861,166.648 114.546,172.591 130.484 L 177.714 144.227 175.063 150.758 L 172.411 157.290 174.606 157.611 C 175.812 157.788,178.600 157.858,180.800 157.767 L 184.800 157.600 192.040 137.067 C 196.022 125.773,199.208 116.385,199.119 116.203 C 198.844 115.644,191.855 115.220,189.600 115.627 L 187.467 116.012 185.600 122.503 C 184.573 126.074,183.593 129.132,183.421 129.299 C 183.249 129.466,182.200 126.662,181.090 123.068 C 179.980 119.474,178.920 116.374,178.736 116.180 C 178.279 115.699,171.935 115.278,169.467 115.565 M100.800 135.467 C 100.800 138.128,100.796 138.133,99.040 138.133 C 96.126 138.133,94.999 135.857,96.883 133.775 C 98.823 131.632,100.800 132.485,100.800 135.467 " stroke="none" fill="#000000" fill-rule="evenodd"></path></g></svg>